# xmcd
#
# Track frame offsets:
#	150
#	12764
#	22594
#	35994
#	47961
#	61573
#	74384
#	85517
#	97631
#	108717
#	121172
#	135954
#	152283
#	165237
#	176494
#	185587
#	197440
#	208668
#	219076
#	230609
#
# Disc length: 3229 seconds
#
# Revision: 1
# Processed by: cddbd v1.5.2PL0 Copyright (c) Steve Scherf et al.
# Submitted via: audiograbber 1.83.01
#
DISCID=ed0c9b14
DTITLE=BB King - Blues Boy
DYEAR=1900
DGENRE=Blues
TTITLE0=Every Day (I Have The Blues)
TTITLE1=Jump With You Baby
TTITLE2=Ruby Lee
TTITLE3=Shut Your Mouth
TTITLE4=You Upset Me Baby
TTITLE5=The Woman I Love
TTITLE6=Bye Bye Baby
TTITLE7=Miss Martha King
TTITLE8=When Your Baby Packs Up and Goes
TTITLE9=Mistreated Woman
TTITLE10=BB's Boogie
TTITLE11=The Other Night Blues
TTITLE12=Walkin' and Cryin'
TTITLE13=She's Dynamite
TTITLE14=My Baby's Gone
TTITLE15=Don't You Want A Man Like Me?
TTITLE16=BB's Blues
TTITLE17=That Ain't The Way To Do It
TTITLE18=She's a Mean Woman
TTITLE19=Hard Working Woman
EXTD=
EXTT0=
EXTT1=
EXTT2=
EXTT3=
EXTT4=
EXTT5=
EXTT6=
EXTT7=
EXTT8=
EXTT9=
EXTT10=
EXTT11=
EXTT12=
EXTT13=
EXTT14=
EXTT15=
EXTT16=
EXTT17=
EXTT18=
EXTT19=
PLAYORDER=
